<svg width="173" height="36" viewBox="0 0 173 36" fill="none" xmlns="http://www.w3.org/2000/svg">
<path d="M51.46 29.7209C45.46 29.7209 40.78 25.5209 40.78 19.3709C40.78 13.1909 45.46 9.02087 51.46 9.02087C56.44 9.02087 59.02 11.7509 60.34 14.3909L55.9 16.4909C55.24 14.9009 53.53 13.5809 51.46 13.5809C48.34 13.5809 46.03 16.1009 46.03 19.3709C46.03 22.6409 48.34 25.1609 51.46 25.1609C53.53 25.1609 55.24 23.8409 55.9 22.2509L60.34 24.3509C59.05 26.9309 56.44 29.7209 51.46 29.7209ZM64.7615 13.0409C63.2915 13.0409 62.1215 11.8709 62.1215 10.4009C62.1215 8.93087 63.2915 7.76087 64.7615 7.76087C66.2315 7.76087 67.4015 8.93087 67.4015 10.4009C67.4015 11.8709 66.2315 13.0409 64.7615 13.0409ZM62.4515 29.3609V14.8709H67.0715V29.3609H62.4515ZM80.2302 29.3609V20.9909C80.2302 19.2209 79.3002 18.5909 77.8602 18.5909C76.4802 18.5909 75.5802 19.3409 75.0402 20.0009V29.3609H70.4202V14.8709H75.0402V16.6409C75.9102 15.6209 77.6202 14.5109 80.0502 14.5109C83.3502 14.5109 84.8502 16.4309 84.8502 19.1009V29.3609H80.2302ZM87.2434 22.1009C87.2434 17.9009 90.4234 14.5109 94.9534 14.5109C99.2434 14.5109 102.363 17.6609 102.363 22.5809V23.5709H92.0434C92.3134 24.9209 93.5734 26.1509 95.7334 26.1509C97.0234 26.1509 98.4634 25.6409 99.2734 24.9209L101.223 27.8009C99.7834 29.0909 97.3834 29.7209 95.1634 29.7209C90.6934 29.7209 87.2434 26.8109 87.2434 22.1009ZM94.9534 18.0809C92.9434 18.0809 92.1634 19.5209 91.9834 20.5709H97.9534C97.8334 19.5509 97.0834 18.0809 94.9534 18.0809ZM122.909 29.3609V20.5409C122.909 19.4309 122.369 18.5909 120.989 18.5909C119.729 18.5909 118.829 19.4009 118.379 20.0009V29.3609H113.759V20.5409C113.759 19.4309 113.249 18.5909 111.839 18.5909C110.609 18.5909 109.739 19.4009 109.259 20.0009V29.3609H104.639V14.8709H109.259V16.6409C109.889 15.8009 111.749 14.5109 114.029 14.5109C116.099 14.5109 117.539 15.3809 118.139 17.0909C118.979 15.8309 120.869 14.5109 123.149 14.5109C125.819 14.5109 127.499 15.8909 127.499 18.8609V29.3609H122.909ZM139.439 29.3609V27.9209C138.539 29.0009 136.799 29.7209 134.939 29.7209C132.719 29.7209 129.959 28.2209 129.959 24.9509C129.959 21.4409 132.719 20.3909 134.939 20.3909C136.859 20.3909 138.569 20.9909 139.439 22.0709V20.2409C139.439 18.9809 138.359 18.1409 136.499 18.1409C135.059 18.1409 133.559 18.6809 132.389 19.6709L130.739 16.7609C132.599 15.1709 135.089 14.5109 137.309 14.5109C140.789 14.5109 144.059 15.8009 144.059 20.3009V29.3609H139.439ZM139.439 25.6409V24.3509C138.959 23.6909 137.879 23.3309 136.859 23.3309C135.629 23.3309 134.549 23.8709 134.549 25.0109C134.549 26.1509 135.629 26.6909 136.859 26.6909C137.879 26.6909 138.959 26.3309 139.439 25.6409ZM152.902 29.7209C149.962 29.7209 148.372 28.2509 148.372 25.4609V18.8909H145.972V14.8709H148.372V10.9109H152.962V14.8709H155.902V18.8909H152.962V24.1709C152.962 25.0109 153.442 25.6409 154.252 25.6409C154.762 25.6409 155.272 25.4609 155.422 25.2809L156.322 28.7609C155.752 29.3009 154.612 29.7209 152.902 29.7209ZM157.263 22.1009C157.263 17.9009 160.443 14.5109 164.973 14.5109C169.263 14.5109 172.383 17.6609 172.383 22.5809V23.5709H162.063C162.333 24.9209 163.593 26.1509 165.753 26.1509C167.043 26.1509 168.483 25.6409 169.293 24.9209L171.243 27.8009C169.803 29.0909 167.403 29.7209 165.183 29.7209C160.713 29.7209 157.263 26.8109 157.263 22.1009ZM164.973 18.0809C162.963 18.0809 162.183 19.5209 162.003 20.5709H167.973C167.853 19.5509 167.103 18.0809 164.973 18.0809Z" fill="white"/>
<circle cx="17.5" cy="18.3609" r="17.5" fill="#6C42BF"/>
<circle cx="17.5" cy="7.86087" r="3" fill="#19072C"/>
<circle cx="17.5" cy="28.8609" r="3" fill="#19072C"/>
<circle cx="7" cy="18.3609" r="3" fill="#19072C"/>
<circle cx="28" cy="18.3609" r="3" fill="white"/>
<circle cx="10" cy="10.8609" r="3" fill="#19072C"/>
<circle cx="25" cy="10.8609" r="3" fill="#19072C"/>
<circle cx="17.5" cy="18.3609" r="1.5" fill="#19072C"/>
<circle cx="25" cy="25.8609" r="3" fill="#19072C"/>
<circle cx="10" cy="26.3609" r="3" fill="#19072C"/>
</svg>
