<?xml version="1.0" encoding="utf-8"?>
<!-- Generator: Adobe Illustrator 27.9.1, SVG Export Plug-In . SVG Version: 6.00 Build 0)  -->
<svg version="1.1"
	 id="svg3139" xmlns:dc="http://purl.org/dc/elements/1.1/" xmlns:rdf="http://www.w3.org/1999/02/22-rdf-syntax-ns#" xmlns:sodipodi="http://inkscape.sourceforge.net/DTD/sodipodi-0.dtd" xmlns:inkscape="http://www.inkscape.org/namespaces/inkscape" xmlns:cc="http://web.resource.org/cc/" xmlns:svg="http://www.w3.org/2000/svg"
	 xmlns="http://www.w3.org/2000/svg" xmlns:xlink="http://www.w3.org/1999/xlink" x="0px" y="0px" viewBox="0 0 707 707"
	 style="enable-background:new 0 0 707 707;" xml:space="preserve">
<style type="text/css">
	.st0{fill:#8C8395;}
</style>
<sodipodi:namedview  bordercolor="#666666" borderopacity="1.0" id="base" inkscape:current-layer="layer4" inkscape:cx="267.67243" inkscape:cy="561.86405" inkscape:guide-bbox="true" inkscape:pageopacity="0.0" inkscape:pageshadow="2" inkscape:window-height="946" inkscape:window-width="1264" inkscape:window-x="0" inkscape:window-y="0" inkscape:zoom="0.71078191" pagecolor="#ffffff" showguides="true">
	</sodipodi:namedview>
<g id="layer4" inkscape:groupmode="layer" inkscape:label="Vector">
	<path id="path3183" class="st0" d="M351.2,0.4C157.3,1.6,0.3,159.4,0.3,353.5c0,194.9,158.2,353.1,353.1,353.1
		s353.2-158.2,353.2-353.1S548.4,0.4,353.4,0.4C352.7,0.4,351.9,0.4,351.2,0.4z M283.4,63.8c0.1,0,0.1,0,0.2,0c0.5,0,1,0,1.4,0
		c0.1,0,0.3,0,0.4,0l0,0l0,0l0,0c7.7,0.5,6.2,5.1,5.1,11.3c-1,6.2-67.8,113-72.4,126.4c-4.6,13.4,4.1,89.6,10.3,97.9
		c5,6.7,104.4,54.5,106.6,48c2.2-6.5-63.7-58.1-62.7-80.8c0.9-20.5,14.3-59.7,30.8-83.3c16.1-23.2,35.6-43.6,49.9-45.4h0.8
		c14.3,1.7,33.8,22.2,49.9,45.4c16.4,23.6,29.8,62.8,30.8,83.3c1,22.7-64.9,74.4-62.7,80.8c2.2,6.5,101.6-41.3,106.6-48
		c6.2-8.3,14.9-84.5,10.3-97.9S417.3,81.3,416.3,75.1c-1-6.2-2.6-10.8,5.1-11.3l0,0l0,0l0,0c0.1,0,0.3,0,0.4,0
		c8-0.3,28.2,5.5,43.2,18c16,13.4,62.2,79.1,67.8,106.9c5.7,27.8-13,116.2-30.3,132.5c-17.2,16.2-120.7,40.3-120,47.5
		c0.7,6.8,98.2-4.4,117.2-9.7c18.2-5.2,65-36.2,72.7-48.5c6-9.6,26.7-119.2,29.3-123.8c1.2-2.2,2.6-4,4.2-4.2l0,0h0.1l0,0
		c1.6,0,3.4,1.7,5.4,6.3c4.1,9.2,17.5,32.4,18,61.7s-13.9,77.1-21.6,86.8c-8,10.1-83.1,44.6-97,48.1c-14,3.6-123,0.7-123.6,8.1
		c-0.5,7.3,75.5,17.1,97.4,23.3c18.3,5.2,70.2,38.7,78.1,51.9c9.2,15.4,18,81.2,9.2,96.6c-8.7,15.4-23.1,22.1-27.7,10.3
		c-4.6-11.8-15.4-85.8-19.5-92s-38-33.9-54.5-41.6c-16.4-7.7-86.7-31.5-89.1-25.7c-1.9,4.6,66.7,46.5,76.8,62.7
		c10.3,16.4,19.5,58,18.5,77c-1,19.1-35.9,75.5-49.3,82.7c-14.4,7.7-24.5,6.2-22.6-10.3c1.7-14.4,27.2-65.3,28.8-76.6
		c1.5-10.7-0.2-49-5.1-60.4c-5-11.6-41.5-52.6-48.2-51c-5,1.2,2.9,43.8-7.1,43.8s-9.3-44.4-19.4-44.7c-9.1,0.3-9.4,44.7-19.4,44.7
		s-2.1-42.6-7.1-43.8c-6.7-1.6-43.1,39.4-48.2,51c-4.9,11.4-6.6,49.7-5.1,60.4c1.5,11.3,27.1,62.2,28.8,76.6
		c2,16.5-8.2,18-22.6,10.3c-13.5-7.2-48.3-63.6-49.3-82.7c-1-19,8.2-60.6,18.5-77c10.1-16.2,78.7-58.1,76.8-62.7
		c-2.4-5.8-72.7,18-89.1,25.7s-50.4,35.4-54.5,41.6s-14.9,80.1-19.5,92s-19,5.1-27.7-10.3c-8.7-15.4,0-81.2,9.2-96.6
		c7.9-13.2,59.8-46.7,78.1-51.9c21.8-6.2,97.9-15.9,97.4-23.3s-109.6-4.4-123.6-8.1c-13.9-3.6-89-38-97.1-48.3
		c-7.7-9.8-22.1-57.5-21.6-86.8s13.9-52.4,18-61.7c2-4.6,3.8-6.3,5.4-6.3l0,0h0.1l0,0c1.5,0.2,2.9,2,4.2,4.2
		c2.6,4.6,23.3,114.3,29.3,123.8c7.7,12.3,54.5,43.4,72.7,48.5c19,5.4,116.5,16.6,117.2,9.7c0.7-7.3-102.8-31.3-120-47.5
		c-17.3-16.3-36-104.8-30.3-132.5S225.9,95,241.9,81.6C255.9,70,274.5,64.2,283.4,63.8z"/>
</g>
</svg>
