<?xml version="1.0" encoding="utf-8"?>
<!-- Generator: Adobe Illustrator 27.9.1, SVG Export Plug-In . SVG Version: 6.00 Build 0)  -->
<svg version="1.1"
	 id="svg2490" xmlns:dc="http://purl.org/dc/elements/1.1/" xmlns:rdf="http://www.w3.org/1999/02/22-rdf-syntax-ns#" xmlns:sodipodi="http://inkscape.sourceforge.net/DTD/sodipodi-0.dtd" xmlns:inkscape="http://www.inkscape.org/namespaces/inkscape" xmlns:cc="http://web.resource.org/cc/" xmlns:svg="http://www.w3.org/2000/svg"
	 xmlns="http://www.w3.org/2000/svg" xmlns:xlink="http://www.w3.org/1999/xlink" x="0px" y="0px" viewBox="0 0 661 661"
	 style="enable-background:new 0 0 661 661;" xml:space="preserve">
<style type="text/css">
	.st0{fill:#8C8395;}
</style>
<sodipodi:namedview  bordercolor="#666666" borderopacity="1.0" id="base" inkscape:current-layer="layer4" inkscape:cx="1368.9233" inkscape:cy="405.61791" inkscape:pageopacity="0.0" inkscape:pageshadow="2" inkscape:window-height="946" inkscape:window-width="1264" inkscape:window-x="0" inkscape:window-y="0" inkscape:zoom="0.25129935" pagecolor="#ffffff">
	</sodipodi:namedview>
<g id="layer4" inkscape:groupmode="layer" inkscape:label="Vector">
	<path id="path2502" class="st0" d="M328.3,1.3C147.6,2.4,1.3,149.5,1.3,330.5c0,181.7,147.5,329.2,329.2,329.2
		s329.2-147.5,329.2-329.2S512.2,1.3,330.5,1.3C329.8,1.3,329,1.3,328.3,1.3z M262.4,128.8h134.8l41,41v79.8h-78.8v-52.7h-57.7
		v117.4l22.4-22.4h71.1l43,42.5v159.9l-40.7,40.2H262.4l-39.5-40.2V169.9L262.4,128.8z M301.7,358.1v108.4h57.7V358.1H301.7z"/>
</g>
</svg>
