<?xml version="1.0" encoding="utf-8"?>
<!-- Generator: Adobe Illustrator 27.9.1, SVG Export Plug-In . SVG Version: 6.00 Build 0)  -->
<svg version="1.1"
	 id="svg3311" xmlns:svg="http://www.w3.org/2000/svg" xmlns:inkscape="http://www.inkscape.org/namespaces/inkscape" xmlns:sodipodi="http://inkscape.sourceforge.net/DTD/sodipodi-0.dtd" xmlns:rdf="http://www.w3.org/1999/02/22-rdf-syntax-ns#" xmlns:cc="http://web.resource.org/cc/" xmlns:dc="http://purl.org/dc/elements/1.1/" inkscape:version="0.43" sodipodi:docbase="/home/sjoerd0/Desktop/totaalpc/pictogrammen" sodipodi:docname="16.svg" sodipodi:version="0.32"
	 xmlns="http://www.w3.org/2000/svg" xmlns:xlink="http://www.w3.org/1999/xlink" x="0px" y="0px" viewBox="0 0 690 690"
	 style="enable-background:new 0 0 690 690;" xml:space="preserve">
<style type="text/css">
	.st0{fill:#8C8395;}
</style>
<sodipodi:namedview  bordercolor="#666666" borderopacity="1.0" id="base" inkscape:current-layer="layer14" inkscape:cx="694.81141" inkscape:cy="191.48028" inkscape:pageopacity="0.0" inkscape:pageshadow="2" inkscape:window-height="946" inkscape:window-width="1264" inkscape:window-x="0" inkscape:window-y="0" inkscape:zoom="0.35539095" pagecolor="#ffffff">
	</sodipodi:namedview>
<g id="layer14" inkscape:groupmode="layer" inkscape:label="Vector">
	<path id="path3323" class="st0" d="M342.8,0C153.3,1.2,0,155.3,0,345c0,190.4,154.6,345,345,345s345-154.6,345-345S535.4,0,345,0
		C344.3,0,343.5,0,342.8,0z M194.5,130.4h63.5v412.3h-80.6v-348h-51.1v-40.3L194.5,130.4z M365.2,130.4H502l43.1,45.4v75.9h-81.8
		v-52.6h-59.5v120l24.3-24.3H500l45.1,44.4v160.4l-42.8,43.2H366.2l-42.6-43.2V175.8L365.2,130.4z M403.8,363.7v109.1h59.5V363.7
		H403.8z"/>
</g>
</svg>
