<?xml version="1.0" encoding="utf-8"?>
<!-- Generator: Adobe Illustrator 27.9.1, SVG Export Plug-In . SVG Version: 6.00 Build 0)  -->
<svg version="1.1"
	 id="svg2987" xmlns:svg="http://www.w3.org/2000/svg" xmlns:inkscape="http://www.inkscape.org/namespaces/inkscape" xmlns:sodipodi="http://inkscape.sourceforge.net/DTD/sodipodi-0.dtd" xmlns:rdf="http://www.w3.org/1999/02/22-rdf-syntax-ns#" xmlns:cc="http://web.resource.org/cc/" xmlns:dc="http://purl.org/dc/elements/1.1/" inkscape:version="0.43" sodipodi:docbase="/home/sjoerd0/Desktop/totaalpc/pictogrammen" sodipodi:docname="drugs.svg" sodipodi:version="0.32"
	 xmlns="http://www.w3.org/2000/svg" xmlns:xlink="http://www.w3.org/1999/xlink" x="0px" y="0px" viewBox="0 0 600 600"
	 style="enable-background:new 0 0 600 600;" xml:space="preserve">
<style type="text/css">
	.st0{fill:#8C8395;}
</style>
<sodipodi:namedview  bordercolor="#666666" borderopacity="1.0" id="base" inkscape:current-layer="layer8" inkscape:cx="434.2275" inkscape:cy="650.01636" inkscape:pageopacity="0.0" inkscape:pageshadow="2" inkscape:window-height="946" inkscape:window-width="1264" inkscape:window-x="0" inkscape:window-y="0" inkscape:zoom="0.50259871" pagecolor="#ffffff">
	</sodipodi:namedview>
<g id="layer8" inkscape:groupmode="layer" inkscape:label="Vector">
	<path id="path2999" class="st0" d="M298.1,0C133.4,1,0,135.1,0,300c0,165.6,134.4,300,300,300c165.6,0,300-134.4,300-300
		S465.6,0,300,0C299.4,0,298.7,0,298.1,0z M384.3,79.2c0.1,0,0.2,0,0.2,0c0.1,0,0.2,0,0.3,0c14.4-0.4,47.1,16.7,76.5,44.1
		c34.9,32.5,43.9,48.3,39.4,56.2c-6,10.5-28,1.5-55-7.8l0.1,0.1c0,0-13.2-6-17.8-5.5c-4.7,0.4-20,9.4-17.9,21.3
		c1.4,8,23,30.6,33.2,40.4c10.2,9.8,47.6,49.3,40,61.6c-7.7,12.3-42.1-10.2-60.8-18.3c-18.7-8.1-21.7,2.5-27.6,8.9
		c-6,6.4-93.1,109.7-101.2,119s-14.9,15.3-27.6,23.8c-12.8,8.5-36.1,1.7-39.5,1.7s-13.3,8.9-19.1,9.3c-4.7,0.3-12.6,1.2-21.3-0.9
		l-61.1,51.5l44.4-60.6c-7.8-8.5-7.4-21.1-2.3-29.1c6-9.4,6.4-22.5,6.4-37.8s7.7-26.8,12.8-32.7s96.1-112.7,101.6-118.6
		s8.5-10.6,8.9-18.3c0.4-7.7-36.6-56.5-25.9-66.7c10.6-10.2,89.7,36.1,104.2,43.8c14.5,7.7,22.1-1.7,27.2-7.7c5.1-6,0-13.6-8.3-29.8
		c-11.7-20.7-21.7-37.8-15-45.7C379.8,80.1,381.8,79.3,384.3,79.2z M306.3,217.3c-5.4,0.2-9.4,1.2-10.3,3
		c-2.6,5.5,12.3,11.3,21.7,17.4c11.4,7.4,27.6,17.8,33.2,12.7c4.2-3.9,7.2-11.5-8.1-24.2c-8.1-6.1-24.6-9.2-35.7-9
		c-0.2,0-0.4,0-0.5,0C306.5,217.3,306.4,217.3,306.3,217.3z M264.4,265.9c-0.1,0-0.3,0-0.4,0c-8.5,0.2-14.9,2-15,5.8
		c-0.4,8.9,17,8.9,28.9,16.2c11.9,7.2,28.9,21.3,34.4,20.4s13.2-16.2-9.8-33.2c-8.4-6-25.1-9.3-37.7-9.2
		C264.7,265.9,264.5,265.9,264.4,265.9z M225,319.6c-8.1,0.2-14.3,2.8-15.7,6.9c-2.5,7.6,13.2,2.1,26.4,11.9
		c12.2,9.1,22.8,21.6,27.2,16.2c4.1-5.2,7.6-14.9-6.8-25.9c-9.6-6.3-20.8-9.1-29.9-9.1c-0.3,0-0.5,0-0.8,0
		C225.3,319.6,225.2,319.6,225,319.6z"/>
</g>
</svg>
