<?xml version="1.0" encoding="utf-8"?>
<!-- Generator: Adobe Illustrator 27.9.1, SVG Export Plug-In . SVG Version: 6.00 Build 0)  -->
<svg version="1.1"
	 id="svg1454" xmlns:svg="http://www.w3.org/2000/svg" xmlns:inkscape="http://www.inkscape.org/namespaces/inkscape" xmlns:sodipodi="http://inkscape.sourceforge.net/DTD/sodipodi-0.dtd" xmlns:rdf="http://www.w3.org/1999/02/22-rdf-syntax-ns#" xmlns:cc="http://web.resource.org/cc/" xmlns:dc="http://purl.org/dc/elements/1.1/" inkscape:version="0.43" sodipodi:docbase="/home/sjoerd0/Desktop/totaalpc/pictogrammen" sodipodi:docname="seks.svg" sodipodi:version="0.32"
	 xmlns="http://www.w3.org/2000/svg" xmlns:xlink="http://www.w3.org/1999/xlink" x="0px" y="0px" viewBox="0 0 600 600"
	 style="enable-background:new 0 0 600 600;" xml:space="preserve">
<style type="text/css">
	.st0{fill:#8C8395;}
</style>
<sodipodi:namedview  bordercolor="#666666" borderopacity="1.0" id="base" inkscape:current-layer="layer2" inkscape:cx="733.33843" inkscape:cy="640.54886" inkscape:guide-bbox="true" inkscape:pageopacity="0.0" inkscape:pageshadow="2" inkscape:window-height="946" inkscape:window-width="1264" inkscape:window-x="0" inkscape:window-y="0" inkscape:zoom="0.50259871" pagecolor="#ffffff" showguides="true">
	</sodipodi:namedview>
<g id="layer2" inkscape:groupmode="layer" inkscape:label="Vector">
	<path id="path2339" class="st0" d="M298.1,0C133.4,1,0,135,0,300c0,165.6,134.4,300,300,300s300-134.4,300-300S465.6,0,300,0
		C299.4,0,298.7,0,298.1,0z M258.5,106.5C258.5,106.5,258.6,106.5,258.5,106.5C258.6,106.5,258.6,106.5,258.5,106.5
		c0.1,0,0.1,0,0.1,0c0,0,0,0,0,0c0,0,0,0,0,0c0.1,0,0.1,0,0.2,0c17.4-0.4,31.8,21.8,18.3,45c-9.9,17-25.5,9.6-42.8,49.5
		c-14.4,33.3,2.7,53,10.2,62.8c7.6,9.8,29.9,25.4,29.9,48.1c0,22.7-17.4,28.1-34.3,28.5s-40.6-13.3-53.9-34.3
		c-12.5-19.6,7.1-76.7,19.2-115.4c10.3-33,20.5-56.7,34.3-73.5C245.6,110.1,252.2,106.8,258.5,106.5
		C258.5,106.6,258.5,106.6,258.5,106.5C258.5,106.6,258.5,106.6,258.5,106.5C258.5,106.6,258.5,106.5,258.5,106.5z M339.7,106.5
		C339.7,106.5,339.7,106.5,339.7,106.5C339.7,106.5,339.7,106.5,339.7,106.5C339.7,106.5,339.8,106.5,339.7,106.5c0.1,0,0.1,0,0.1,0
		c0,0,0,0,0,0c0,0,0,0,0,0c0.1,0,0.2,0,0.3,0c6.7-0.2,13.9,3,20.2,10.6c13.8,16.8,24,40.5,34.3,73.5c12,38.8,31.7,95.8,19.2,115.4
		c-13.4,21-37,34.8-53.9,34.3c-16.9-0.4-34.3-5.8-34.3-28.5c0-22.7,22.3-38.3,29.9-48.1c7.6-9.8,24.7-29.5,10.2-62.8
		c-17.2-39.9-32.8-32.5-42.8-49.5C309.7,129,322.9,107.4,339.7,106.5C339.6,106.6,339.7,106.6,339.7,106.5
		C339.7,106.6,339.7,106.5,339.7,106.5z M111.4,232c0.1,0,0.3,0,0.4,0c0,0,0.1,0,0.1,0c8,0,17.1,7.6,17.6,25.2
		c0.4,17.6-5.3,29.2-10.2,29.2c-7.4,0-17.6-20.8-20.5-34.3C96.1,239.7,104.8,232.4,111.4,232z M487.2,232c0.1,0,0.1,0,0.2,0
		c0.1,0,0.1,0,0.2,0c0.2,0,0.3,0,0.5,0c0,0,0.1,0,0.1,0c6.7,0,15.8,7.4,13.2,20.1c-2.8,13.5-13.1,34.3-20.5,34.3
		c-4.9,0-10.7-11.6-10.3-29.2C471,240.3,479.4,232.6,487.2,232z M81.8,257.6c4.2-0.2,8.5,3.4,10.9,9c2.9,6.7,4,22.5-2,24.5
		c-4,1.2-7.7-0.9-10.8-4.3c2,5.6,3.2,12.4,1,14.3c-3.5,3.2-8.3,0.4-11.9-2.7c2.1,3.5,3.9,8.2,1.8,12.9c-4,4.5-12.3,1.6-15.6-2
		c-3.8-4.2-7.8-10.1-1.8-16.9c2.6-3,6.3-2.3,9.3-0.6c-2.9-4.4-5.8-11.7-0.2-16.8c4.6-4.2,7.9-2.9,10.6-0.1
		c-1.6-5.4-1.1-12.6,5.4-16.4c1-0.6,2-0.9,3-1C81.7,257.7,81.7,257.6,81.8,257.6z M517.1,257.6C517.1,257.6,517.2,257.6,517.1,257.6
		c0.1,0,0.1,0,0.1,0c0,0,0,0,0.1,0c0,0,0,0,0,0c0,0,0,0,0.1,0c0.1,0,0.1,0,0.2,0c0.3,0,0.6,0,0.9,0c1,0.1,2,0.4,3,1
		c6.5,3.8,7,11,5.4,16.4c2.6-2.8,5.9-4.2,10.6,0.1c5.6,5.1,2.7,12.4-0.2,16.8c3-1.7,6.7-2.4,9.3,0.6c6,6.8,2,12.7-1.8,16.9
		c-3.3,3.6-11.6,6.5-15.6,2c-2-4.7-0.2-9.5,1.8-12.9c-3.6,3.1-8.4,5.9-11.9,2.7c-2.2-1.9-1-8.7,1-14.3c-3.1,3.5-6.8,5.5-10.8,4.3
		c-6-2-4.9-17.9-2-24.5C509.5,261.6,513.3,258.1,517.1,257.6z M116.6,298c0.1,0,0.1,0,0.2,0c0.1,0,0.2,0,0.3,0
		c10.3-0.3,19,5.4,25.1,17.1c9.3,17.9-23.7,53.5-27.6,74c-4.2,21.9,8.9,34.8,17.4,44.6c8.5,9.8,27.2,10.7,39.2,12.9
		c12,2.2,18.7,15.6,19.2,21.4c0.4,5.8,0.5,24.9-20,25.4c-20.5,0.4-48.6-41.4-67.8-70.4c0,0,0,0,0,0c-0.7-1.3-24.2-38-29.8-61
		c-5.8-23.6,3-42.8,22.3-55.7C102.7,301.1,109.9,298.3,116.6,298z M480.4,298c0,0,0.1,0,0.1,0c0,0,0.1,0,0.1,0c0.1,0,0.2,0,0.2,0
		c0.1,0,0.1,0,0.2,0c0.1,0,0.2,0,0.3,0c7.2-0.2,15.1,2.5,23.7,8.2c19.3,12.9,28.1,32.1,22.3,55.7c-5.7,23.3-29.6,60.3-29.9,61.1
		c-19.2,29-47.2,70.9-67.7,70.4c-20.5-0.4-20.5-19.6-20-25.4c0.4-5.8,7.1-19.2,19.2-21.4c12-2.2,30.8-3.1,39.2-12.9
		s21.6-22.6,17.4-44.6c-3.9-20.5-37-56.1-27.6-74C463.4,304.4,471.2,298.7,480.4,298z M407.3,331.8
		C407.3,331.8,407.3,331.8,407.3,331.8C407.3,331.8,407.4,331.8,407.3,331.8c0.1,0,0.1,0,0.1,0c0,0,0,0,0.1,0c0,0,0.1,0,0.1,0
		c0,0,0,0,0,0c0.2,0,0.4,0,0.6,0c4.9,0.3,11.3,5.2,14.1,11.8c3.5,8.2,2.8,15.1-2.5,19.5c-3.9,2.6-7.2,1.8-9.8-0.2
		c1.7,7.5,0.8,15-5.7,19.2c-5.6,2.7-9.3,0.9-11.8-2.5c0.2,6.4-1,13.2-7.4,15.4c-12.6,5.7-15.7-10.8-17-17.6c-1.5-7.6,0-24,6.9-26.5
		c3.8-1.4,8,2.2,11.2,6.8c-0.1-6.2,0.9-12.3,4.2-14.3c3.7-2.2,8.2,0.1,11.8,4c-0.7-5.8-0.4-12.9,2.7-14.7
		C405.6,332.2,406.4,331.9,407.3,331.8C407.3,331.8,407.3,331.8,407.3,331.8C407.3,331.8,407.3,331.8,407.3,331.8
		C407.3,331.8,407.3,331.8,407.3,331.8z M191.3,331.8C191.3,331.8,191.3,331.8,191.3,331.8C191.4,331.8,191.4,331.8,191.3,331.8
		c0.1,0,0.1,0,0.1,0c0,0,0,0,0,0c0,0,0,0,0.1,0c0,0,0,0,0,0c0,0,0,0,0,0c0,0,0,0,0.1,0c0,0,0,0,0,0c0,0,0,0,0,0c0,0,0,0,0.1,0
		c0,0,0,0,0,0c0,0,0,0,0,0c0,0,0,0,0.1,0c0,0,0,0,0,0c1.2-0.1,2.3,0.2,3.3,0.8c3,1.8,3.3,8.9,2.7,14.7c3.6-3.9,8.2-6.2,11.8-4
		c3.3,2,4.3,8.2,4.2,14.3c3.2-4.6,7.4-8.2,11.2-6.8c6.9,2.5,8.4,18.9,6.9,26.5c-1.4,6.9-4.4,23.3-17,17.6c-6.4-2.3-7.6-9-7.4-15.4
		c-2.5,3.4-6.2,5.2-11.8,2.5c-6.4-4.1-7.3-11.6-5.7-19.2c-2.6,2-5.8,2.9-9.8,0.2c-5.4-4.4-6-11.3-2.5-19.5
		C180.5,337.3,186.5,332.4,191.3,331.8z M253,350.2C253,350.2,253,350.2,253,350.2C253,350.2,253.1,350.2,253,350.2
		c0.1,0,0.1,0,0.1,0c0,0,0,0,0.1,0c0.1,0,0.2,0,0.3,0c8.2,0,21.4,26.8,21.8,38.1c0.3,11.3-2.8,24.9-16.4,24.9
		c-12,1.6-18-9.5-18.9-20.5C239,381.9,245,351.4,253,350.2z M346,350.2C346,350.2,346.1,350.2,346,350.2
		C346.1,350.2,346.1,350.2,346,350.2C346.1,350.2,346.1,350.2,346,350.2c0.1,0,0.1,0,0.1,0c0,0,0,0,0,0c0,0,0,0,0.1,0c0,0,0,0,0,0
		c0.1,0,0.2,0,0.3,0c8.2,0,14.5,31.5,13.5,42.5c-0.9,11-6.9,22.1-18.9,20.5c-13.6,0-16.7-13.5-16.4-24.9
		C325.1,377.3,337.8,351.4,346,350.2z"/>
</g>
</svg>
