<?xml version="1.0" encoding="utf-8"?>
<!-- Generator: Adobe Illustrator 27.9.1, SVG Export Plug-In . SVG Version: 6.00 Build 0)  -->
<svg version="1.1"
	 id="svg3068" xmlns:svg="http://www.w3.org/2000/svg" xmlns:inkscape="http://www.inkscape.org/namespaces/inkscape" xmlns:sodipodi="http://inkscape.sourceforge.net/DTD/sodipodi-0.dtd" xmlns:rdf="http://www.w3.org/1999/02/22-rdf-syntax-ns#" xmlns:cc="http://web.resource.org/cc/" xmlns:dc="http://purl.org/dc/elements/1.1/" inkscape:version="0.43" sodipodi:docbase="/home/sjoerd0/Desktop/totaalpc/pictogrammen" sodipodi:docname="discriminatie.svg" sodipodi:version="0.32"
	 xmlns="http://www.w3.org/2000/svg" xmlns:xlink="http://www.w3.org/1999/xlink" x="0px" y="0px" viewBox="0 0 600 600"
	 style="enable-background:new 0 0 600 600;" xml:space="preserve">
<style type="text/css">
	.st0{fill:#8C8395;}
</style>
<sodipodi:namedview  bordercolor="#666666" borderopacity="1.0" id="base" inkscape:current-layer="layer10" inkscape:cx="412.68236" inkscape:cy="651.05646" inkscape:pageopacity="0.0" inkscape:pageshadow="2" inkscape:window-height="946" inkscape:window-width="1264" inkscape:window-x="0" inkscape:window-y="0" inkscape:zoom="0.71078191" pagecolor="#ffffff">
	</sodipodi:namedview>
<g id="layer10" inkscape:groupmode="layer" inkscape:label="Vector">
	<path id="path3080" class="st0" d="M298,0C133.3,1.1,0,135.1,0,300c0,165.6,134.4,300,300,300s300-134.4,300-300S465.6,0,300,0
		C299.4,0,298.7,0,298,0z M247.3,63c0.2,0,0.4,0,0.6,0c15.1-0.1,30.3,6,36.2,18.1c13.2,26.8-21.1,89.6-11.8,100.6
		c9.3,11,34.8,12,44,23.7c9.3,11.8,11.8,23.7,11.8,23.7s29.6-4.2,31.3-14.4c1.7-10.1-25.3-86.6-11.8-110.7
		c9.8-17.7,63-16.5,71.8,13.5c8.3,28.1-34.9,87.2-31.7,102.7c3.3,15.9,20.3,12.8,32.5,28.3c20.3,25.8,16.5,60.8,16.5,60.8
		s20.8-2.2,22.8-9.7c3-11-19.9-85.4,0.4-103.1c17.6-15.4,50.3-16.5,60.4,5.5c10.1,22-38.5,96.3-33.4,105.6s28.7,12.3,35.5,29.2
		c6.8,16.9,8.8,57-29.6,108.6c-31.6,42.4-50,73.7-121.7,87.6c11-37.2,23-80.1,25-118c3-57-12.9-87.6-27.5-101.8
		c-18.6-18.2-37.6-2.9-45.7-6.7c-7.2-3.4-13.7-50.7-38.4-79.9c-3.5-4.1-7.8-5.7-12.6-5.5c-16.8,0.8-37.9,24.8-37.3,41.4
		c1.4,35.4,64.2,51.2,67.2,60c1.5,4.5-14.2,13.9-17.3,29.6c-2.5,12.7,9.3,25.3,16.9,68c5.7,32.1-8.4,83.2-21,120.3
		c-106.8-3.2-146.2-59.5-170.4-101.7c-26.2-45.6-28.7-86-18.2-119.6c8.5-27,37.4-22.7,35.9-41.8c-1.5-19-46.9-79.4-34.2-98.9
		c12.7-19.4,47.7-26.6,63.4-3.8c15.2,22-7.4,93.2-1.7,98.9c5.2,5.2,32.5-2.9,32.5-2.9s-2.7-39.5,7.6-55
		c11.8-17.7,44.8-27.9,44.8-35.5s-42.6-78.6-24.9-102.7C222.1,68,234.6,63.3,247.3,63z M348.4,455.9c0.1,0,0.2,0,0.4,0
		c10.3,0.3,7,36.8,2,80.4c-12.8,1.7-27.1,2.9-43,3.7c-2.7,0.1-5.4,0.2-8,0.3C323,491.6,339.8,456.6,348.4,455.9z"/>
</g>
</svg>
