<?xml version="1.0" encoding="utf-8"?>
<!-- Generator: Adobe Illustrator 27.9.1, SVG Export Plug-In . SVG Version: 6.00 Build 0)  -->
<svg version="1.1"
	 id="svg3151" xmlns:svg="http://www.w3.org/2000/svg" xmlns:inkscape="http://www.inkscape.org/namespaces/inkscape" xmlns:sodipodi="http://inkscape.sourceforge.net/DTD/sodipodi-0.dtd" xmlns:rdf="http://www.w3.org/1999/02/22-rdf-syntax-ns#" xmlns:cc="http://web.resource.org/cc/" xmlns:dc="http://purl.org/dc/elements/1.1/" inkscape:version="0.43" sodipodi:docbase="/home/sjoerd0/Desktop/totaalpc/pictogrammen" sodipodi:docname="12.svg" sodipodi:version="0.32"
	 xmlns="http://www.w3.org/2000/svg" xmlns:xlink="http://www.w3.org/1999/xlink" x="0px" y="0px" viewBox="0 0 600 600"
	 style="enable-background:new 0 0 600 600;" xml:space="preserve">
<style type="text/css">
	.st0{fill:#8C8395;}
</style>
<sodipodi:namedview  bordercolor="#666666" borderopacity="1.0" id="base" inkscape:current-layer="layer12" inkscape:cx="440.30935" inkscape:cy="680.2051" inkscape:pageopacity="0.0" inkscape:pageshadow="2" inkscape:window-height="946" inkscape:window-width="1264" inkscape:window-x="0" inkscape:window-y="0" inkscape:zoom="0.35539095" pagecolor="#ffffff">
	</sodipodi:namedview>
<g id="layer12" inkscape:groupmode="layer" inkscape:label="Vector">
	<path id="path3165" class="st0" d="M296.1,0C132.3,2.1,0,135.7,0,300c0,165.6,134.4,300,300,300s300-134.4,300-300S465.6,0,300,0
		C298.7,0,297.4,0,296.1,0z M161.4,112.2h57.7v374.2h-73.2V170.6H99.5V134L161.4,112.2z M309.1,112.2H435l38.7,39.4v130.2
		L346.4,387.9v31.7h127.3v66.8H272.5V355.6l128.8-108.3v-71.1h-54.2v48.5h-74.6v-73.2L309.1,112.2z"/>
</g>
</svg>
